<svg width="149" height="32" viewBox="0 0 149 32" fill="none" xmlns="http://www.w3.org/2000/svg">
<path fill-rule="evenodd" clip-rule="evenodd" d="M101.593 25.498C98.8998 29.5385 94.0233 32 88.5896 32C79.4868 32 72.7526 25.1265 72.7526 16.4881C72.7526 7.89626 79.4868 0.976318 88.5896 0.976318C92.6301 0.976318 96.1597 2.3696 98.8998 4.59884L95.6953 8.2678C93.6518 6.54943 91.3297 5.85279 88.636 5.85279C82.7378 5.85279 78.3722 10.6828 78.3722 16.4881C78.3722 22.2935 82.7378 27.1235 88.636 27.1235C91.7941 27.1235 94.5807 25.6838 96.3919 23.4545V18.253H90.8652V13.748H101.593V25.498ZM115.07 31.5355H109.683V1.44075H115.07V31.5355ZM138.086 32C142.405 32 146.213 30.4209 149 27.8666L145.703 24.1512C143.752 26.0553 141.058 27.1235 138.132 27.1235C132.234 27.1235 127.869 22.247 127.869 16.4417C127.869 10.6828 132.234 5.85279 138.458 5.85279C140.826 5.85279 143.055 6.54943 145.099 8.12848L148.21 4.50596C145.563 2.27671 141.987 0.976318 138.086 0.976318C128.983 0.976318 122.249 7.89627 122.249 16.4417C122.249 25.08 128.983 32 138.086 32ZM42.2007 31.5355H36.7205L50.2818 1.44075H55.3904L68.9517 31.5355H63.4714L61.1029 26.334L59.2452 22.0613L55.8084 14.2589C54.508 11.2866 52.8361 7.24607 52.8361 7.24607C52.8361 7.24607 51.2106 11.2401 49.8638 14.2589L46.427 22.0613L44.5693 26.334L42.2007 31.5355ZM4.09278 1.81874L0 1.81874V3.26255V31.5156H2.30221H6.97435H7.9154L15.2669 22.9226L22.3914 31.5156H23.3268H28.7776H31.0798V3.26255V1.7871H27.0132L15.3316 15.6937L4.09278 1.81874ZM4.60442 9.75913L12.3177 19.2816L5.89999 26.9216H4.60442V9.75913ZM24.7488 26.9216L18.2808 19.3347L26.4754 9.57925V26.9216H24.7488Z" fill="white"></path>
</svg>