<svg width="149" height="32" viewBox="0 0 149 32" fill="none" xmlns="http://www.w3.org/2000/svg">
<path fill-rule="evenodd" clip-rule="evenodd" d="M101.593 24.5217C98.8998 28.5622 94.0233 31.0236 88.5896 31.0236C79.4868 31.0236 72.7526 24.1501 72.7526 15.5118C72.7526 6.91994 79.4868 0 88.5896 0C92.6301 0 96.1597 1.39328 98.8998 3.62252L95.6953 7.29148C93.6518 5.57311 91.3297 4.87647 88.636 4.87647C82.7378 4.87647 78.3722 9.7065 78.3722 15.5118C78.3722 21.3171 82.7378 26.1472 88.636 26.1472C91.7941 26.1472 94.5807 24.7075 96.3919 22.4782V17.2766H90.8652V12.7717H101.593V24.5217ZM115.07 30.5592H109.683V0.464428H115.07V30.5592ZM138.086 31.0236C142.405 31.0236 146.213 29.4446 149 26.8903L145.703 23.1748C143.752 25.079 141.058 26.1472 138.132 26.1472C132.234 26.1472 127.869 21.2707 127.869 15.4654C127.869 9.7065 132.234 4.87647 138.458 4.87647C140.826 4.87647 143.055 5.57311 145.099 7.15216L148.21 3.52964C145.563 1.30039 141.987 0 138.086 0C128.983 0 122.249 6.91995 122.249 15.4654C122.249 24.1037 128.983 31.0236 138.086 31.0236ZM42.2007 30.5592H36.7205L50.2818 0.464432H55.3904L68.9517 30.5592H63.4714L61.1029 25.3577L59.2452 21.0849L55.8084 13.2826C54.508 10.3103 52.8361 6.26975 52.8361 6.26975C52.8361 6.26975 51.2106 10.2638 49.8638 13.2826L46.427 21.0849L44.5693 25.3577L42.2007 30.5592ZM4.09278 0.842423L0 0.842423V2.28623V30.5393H2.30221H6.97435H7.9154L15.2669 21.9463L22.3914 30.5393H23.3268H28.7776H31.0798V2.28623V0.810777H27.0132L15.3316 14.7174L4.09278 0.842423ZM4.60442 8.78281L12.3177 18.3053L5.89999 25.9453H4.60442V8.78281ZM24.7488 25.9453L18.2808 18.3584L26.4754 8.60293V25.9453H24.7488Z" fill="#202020"></path>
</svg>